<svg id="visual" viewBox="0 0 900 600" width="900" height="600" xmlns="http://www.w3.org/2000/svg" xmlns:xlink="http://www.w3.org/1999/xlink" version="1.1"><g><g transform="translate(736 365)"><path d="M103.6 -35.3C115.6 3.1 93.6 50.8 59.2 74C24.8 97.3 -22 96 -52.3 73.6C-82.6 51.2 -96.5 7.6 -85 -30C-73.6 -67.7 -36.8 -99.5 4.5 -101C45.9 -102.5 91.7 -73.6 103.6 -35.3Z" fill="#0066FF"></path></g><g transform="translate(80 437)"><path d="M55 -17.5C62.5 5.2 53.7 33.5 34.6 47.4C15.5 61.2 -14 60.5 -35.3 45.7C-56.5 31 -69.5 2.1 -62.3 -20.3C-55 -42.7 -27.5 -58.5 -1.9 -57.9C23.7 -57.3 47.5 -40.2 55 -17.5Z" fill="#0066FF"></path></g><g transform="translate(464 26)"><path d="M79.5 -26.6C89.5 4.9 74.8 43.8 48 62.3C21.3 80.8 -17.4 78.9 -41.4 60.6C-65.3 42.3 -74.7 7.5 -65.3 -23.2C-56 -53.8 -28 -80.4 3.4 -81.5C34.8 -82.6 69.5 -58.2 79.5 -26.6Z" fill="#0066FF"></path></g></g></svg>